# xmcd CD Database Entry
#
# Track frame offsets:
# 150
# 12901
# 24652
# 37790
# 51614
# 63107
# 74726
# 88304
# 100138
# 112351
# 124640
# 138441
# 150887
# 163938
# 176814
# 189515
# 202256
# 214979
# 226768
# 240156
# 252292
# 265623
# 282257
# 293195
#
# Disc length: 4069 seconds
#
# Revision: 2
# Processed by: cddbd v1.4b41PL1 Copyright (c) Steve Scherf et al.
# Submitted via: tcd 2.0b
#
DISCID=630fe318
DTITLE=Brownie McGhee - Born For Bad Luck CD#2
DYEAR=1900
DGENRE=
TTITLE0=Key To My Door
TTITLE1=Million Lonesome Women
TTITLE2=Aint No Tellin'
TTITLE3=Try Me One More Time
TTITLE4=I Want To See Jesus
TTITLE5=Done What My Lord Said
TTITLE6=I Want King Jesus
TTITLE7=What Will I Do (Without The Lord)
TTITLE8=Key To The Highway 70 (1)
TTITLE9=Key To The Highway 70 (2)
TTITLE10=Spur 11I Don't Believe In Love
TTITLE11=So Much Trouble
TTITLE12=Good-Bye Now
TTITLE13=Jealous Of My Woman
TTITLE14=Unfair Blues
TTITLE15=Barbecue Any Old Time
TTITLE16=Workingman's Blues
TTITLE17=Sinful Disposition Woman
TTITLE18=Back Home Blues
TTITLE19=Deep Sea Diver
TTITLE20=It Must Be Love
TTITLE21=Studio Chatter (Brownie McGhee-Buddy Mass-Art Satherly-J.B.Lo
TTITLE21=ng)
TTITLE22=Sing, Soldier, Swing (1)
TTITLE23=Sing, Soldier, Swing (2)
EXTD=All Songs written by Walter ''Brownie'' McGhee\n
EXTT0=
EXTT1=
EXTT2=
EXTT3=
EXTT4=
EXTT5=
EXTT6=
EXTT7=
EXTT8=
EXTT9=
EXTT10=
EXTT11=
EXTT12=
EXTT13=
EXTT14=
EXTT15=
EXTT16=
EXTT17=
EXTT18=
EXTT19=
EXTT20=
EXTT21=
EXTT22=
EXTT23=
PLAYORDER=
